<svg xmlns="http://www.w3.org/2000/svg" xmlns:xlink="http://www.w3.org/1999/xlink" viewBox="0 0 629.07 169.16"><defs><style>.cls-1{isolation:isolate;}.cls-2{font-size:82.85px;fill:#1d1d1b;font-family:Kanit-Medium, Kanit;font-weight:500;letter-spacing:0.05em;}.cls-3{font-family:Kanit-Light, Kanit;font-weight:300;letter-spacing:0.05em;}.cls-4{fill:url(#Degradado_sin_nombre_25);}.cls-5{fill:url(#Degradado_sin_nombre_25-2);}.cls-6{fill:url(#linear-gradient);}.cls-7,.cls-8{fill:#fff;}.cls-8{mix-blend-mode:multiply;}.cls-9{opacity:0.25;}</style><linearGradient id="Degradado_sin_nombre_25" x1="35.3" y1="142.75" x2="122.07" y2="55.98" gradientUnits="userSpaceOnUse"><stop offset="0" stop-color="#d12b6e"/><stop offset="1" stop-color="#440059"/></linearGradient><linearGradient id="Degradado_sin_nombre_25-2" x1="31.91" y1="79.31" x2="52.2" y2="79.31" xlink:href="#Degradado_sin_nombre_25"/><linearGradient id="linear-gradient" x1="34.08" y1="60.89" x2="122.15" y2="60.89" xlink:href="#Degradado_sin_nombre_25"/></defs><g class="cls-1"><g id="Desk"><text class="cls-2" transform="translate(173.61 105.36)">MED<tspan class="cls-3" x="176.06" y="0">SPIRES</tspan></text><path class="cls-4" d="M134.94,77.33c-9,2.07-16.92,7.2-24.25,12.76s-14.33,11.67-22.36,16.16a66.78,66.78,0,0,1-47.21,6.66,66.88,66.88,0,0,1-35-21.28s-.09,0-.08,0a80.36,80.36,0,0,0,153.51-9.78,0,0,0,0,0,0,0C152.81,76.53,143.33,75.39,134.94,77.33Z"/><path class="cls-5" d="M31.91,56.56v45.5a1.46,1.46,0,0,0,1.46,1.46H50.73a1.46,1.46,0,0,0,1.47-1.46V89.15a1.39,1.39,0,0,0-.18-.69L34.66,55.87A1.46,1.46,0,0,0,31.91,56.56Z"/><path class="cls-6" d="M122,27.69a1.8,1.8,0,0,0-1.8-1.79H104.91a1.81,1.81,0,0,0-1.55.88L77.26,70.69l-.21-.36L50.91,27.45a3.21,3.21,0,0,0-2.75-1.55H37.31a3.22,3.22,0,0,0-2.84,4.75L52.19,63.49h0l9.64,15.72.11.18h0L72,95.85s0,0,0,0h8.7A1.81,1.81,0,0,0,82.33,95L98.51,67.83a1.8,1.8,0,0,1,3.34.89l.09,6.82a4.14,4.14,0,0,0,4.15,4.08H118a4.14,4.14,0,0,0,4.14-4.16Z"/><path class="cls-7" d="M123,110.42a3,3,0,0,1-3,2.56h-4.26a0,0,0,0,0,0,0v4.26a3,3,0,0,1-2.56,3,2.81,2.81,0,0,1-3.07-2.8v-7.28a2.86,2.86,0,0,1,2.86-2.86h7.28A2.81,2.81,0,0,1,123,110.42Z"/><path class="cls-7" d="M115.66,102.85v7.27A2.86,2.86,0,0,1,112.8,113h-7.07a3,3,0,0,1-3-2.56,2.82,2.82,0,0,1,2.81-3.07H110a0,0,0,0,0,0,0v-4.26a3,3,0,0,1,2.57-3A2.82,2.82,0,0,1,115.66,102.85Z"/><path class="cls-8" d="M110,113v.85h3.43a3.06,3.06,0,0,0,3.05-3v-3.43h-.85v2.77A2.86,2.86,0,0,1,112.8,113Z"/><g class="cls-9"><path class="cls-7" d="M105.72,107.35a2.94,2.94,0,0,0-3,2.51,2.79,2.79,0,0,0,1.18,2.61,0,0,0,0,0,.07,0,36.69,36.69,0,0,1,3.92-5,0,0,0,0,0,0-.08Z"/><path class="cls-7" d="M112.53,100.05a2.94,2.94,0,0,0-2.5,3v2.16a0,0,0,0,0,.08,0,40,40,0,0,1,5-3.94,0,0,0,0,0,0-.07A2.81,2.81,0,0,0,112.53,100.05Z"/></g></g></g></svg>